<svg xmlns="http://www.w3.org/2000/svg" viewBox="0 0 1599.8 694.64"><defs><style>.cls-1{fill:#1e0008;}</style></defs><title>Asset1</title><g id="Layer_2" data-name="Layer 2"><g id="Layer_2-2" data-name="Layer 2"><path class="cls-1" d="M0,274.74s3-2,3,4,7,8,16,5,4-9,9-9,11,0,12-8,5-11,19-18,18-9,27-12,7-7,11-5,8,9,6,11-5,4-3,5-2,6,1,8,6,2,7,6,0,6,0,6,5-5,9-1,9,7,11,6-1-6,2-7,5-4,8-4,5,6,5,6,1-7,6-7,4-5,10-3,9,2,9,2a9.25,9.25,0,0,1,11-5c8,2,7,8,7,8l21.5-1.5s1-10,5-11,10,0,10,0v-8s-6,1-7-5-2-9,7-14,15-9,20-7,6,9,10,5,8-6,11-2,3,13,12,8,9-11,25-12,18,1,23-7,20-14,28-13,13,5,23,6,23-2,26-12c0,0,1-24,4-30s6-3,5-23,2-21,5-24,3-6,5-9,4-12,8-19,6-10,10-12c0,0,0-1-4-3s-4-9-1-11,2-5,7-6,6-1,7,2a10.69,10.69,0,0,0,3,5c1,1,2,1,2,2s-1,1,0,2,0,1,1,2,2,2,0,3-5,1-5,3v2a13.63,13.63,0,0,0,6,3c4,1,10,3,13-2s6-6,8-8,3-2,4-4,2-2,4-3,0-1,3-3,3-1,4-8,0-17,1-19l1.5-1.5c1-1-1-2-1-3s2-2,2-2-3-1-3,0-1,2-2,0-2-2-3-2,0,1-1,1-1-1-2-3-2-2.37-3-2-1.25,1.13-3.37,1.63-3.75.12-2.62-1.75,3.13-2.62,3.13-5.25-1-5.37,2.75-8.87,8.63-3.13,12.13,0,3.63,9.88,7.75,9.88,3.75,2.25,5.5,1.13,1.13-2,4.38-.25,8.25.88,8.25.88,1.63-2.62,5.5-1,7,5.75,9,6.25,3.13,1.63,3.13,4.38,4.63,3.13,4.5,6.25,1.25,8.37,3,12.37,3.38,10.13,3.25,13-1.75.38-2-.12,1.38-2,0-4-1.12.75-2.75,1.63-3,1.13-2,3.25,2-3,2.88-.25-2.5,1.38-2,3.88-.37,3.13-1.25,3.38.38.88-2,3.5-3.25,2.75-4,7.63-1.62,6.25-1.62,8.88a6.43,6.43,0,0,1-.75,3.63,3.64,3.64,0,0,0,1.88,3.5c2.25,1.5,2.25-1.12,7.5,6.38s9.13,13.13,11,15,2.88,4.88,4.13,5.63-3.62,4.38-3.62,4.38a10.16,10.16,0,0,1,7.13,1c3.75,2,3.63,3.75,7.75,4.5s5.13-2.62,6.5-2.37-.62,4.75,3.38,2.88,4.63-4.25,8.38-4.12,5.5-3.5,7-2.12,1.75,3.75,5,1.75,4.88-3,7.38-1.75,4.63-.5,7.13-1.87,4.75.75,9.63-1.25,10.88-4.37,16.25,2,8.25,11.5,7,14.25-10,7.25-8.62,10.88,5.13,4.13,3.75,6.38-5.75,1.25-4.62,3.38,10.71,12.25,9.79,15.88-4.42,8.13-6.79,10.25-2.87,3-2.37,6.13-.37,2.75-3.62,2.75S618.38,198.24,619,202s.88,17.75-5.25,21.5-13.62,5.63-15.37,11.63a61,61,0,0,0-2.12,11.5s5.5.38,10.5,6.5,4.13,8.25,4.13,8.25L607.5,266s6.38-2.25,8.5,3,6.88,15.25,14.5,16.88,8.75-1.25,12.25,5.13,6.5,9.25,15.5,7.63,13.25-6.25,17.88-1.37,8.88,7,6.88,12,.51,12.5.51,12.5,4.49-5,8,0,5.5,4,8.5,9,9,11,9.5,16-4,5.5,0,12.5,11,11.5,12.5,17.5,3,13,3,13,12,0,15.5,3,13.5,18.5,22.5,18,9-3.5,17.5,3,10.5-1,15,0,14,2.68,14,2.68-.5-7.18,8-6.18a182.29,182.29,0,0,1,20,4,18.47,18.47,0,0,1-4.5-13.5c.5-8.5,1-15.5,8.5-17s35-7.5,41.5,2,.5,20.5-2.5,22a8.55,8.55,0,0,0-4,4s18,13.5,28.5,10.5,14.5-12.5,20.5-14,4.5,6.5,13-.5,8-12,18.5-12.5,13-12,10-21.5-4.5-21.5-3-24.5,43.5-4.5,61-8,15-3,18-12,9.5-12,17-13.5,11.5-13,19-9,12.5,10.5,28,8.5,19,0,19,0a15.13,15.13,0,0,0,14.5-4c6.5-6.5,11-7.5,13.5-7a33.06,33.06,0,0,0,5.5.5v-6s-5.5-5.5-6-16-2-18,6-24,17.5-19,36-12.5,29.5,0,31.5,14.5,8,25.5,16.5,21,33-14.5,52-5,22,19,37.5,20.5,18.5-6.5,25.5,5,10.5,9.5,20.5,7.5,14-7,10.5-13-8.5-26.5-3-30,51.5-20.5,59.5-10,10,15.5,8,27a123.36,123.36,0,0,1-4.5,18.5s18,15.5,28,20a168.27,168.27,0,0,1,18,9.5s-5.5,2,0,10,15,15.5,25.5,10,22.5,0,36-8.5,14-16.5,21.5-19,21.3-18.5,21.3-18.5v388.9H0Zm507.5-213s-4.5-2.75-5.75-7A77.66,77.66,0,0,0,499,47a14,14,0,0,0-3.25,7.38c-.75,4.88-2,6.63-5.5,8.88S482.75,67,481,69.49s-7.5,11.75-8.75,12.5-9.5,3.75-14,3.5-9.25,0-9.25,0,.5,5.24-1.25,8.24-5.5,4.5-5.5,6.5a14.1,14.1,0,0,1-2.75,8.5,20.18,20.18,0,0,0-3.25,7s13.25,2.75,18.5,4.5,8,3,9.25,8.5.5,6.5.5,12,.25,13.25.25,13.25,6.5-4.5,7.13-6.25S474,151,476,150.24l2-.75s3.5,4.5,5,4.5,3.25-2.25,6.25-4.75,3.5-3.75,6.5-.75,9,2.75,10.25-1.25a46.18,46.18,0,0,1,3-7.25s-3.25-12.75-5.25-21.75-1.5-20.25,0-28.5,1.25-9.5,2.75-13-1-7.75-1-7.75A10.83,10.83,0,0,1,507.5,61.74Zm11.75,32v9.38a7.67,7.67,0,0,1-3.12,1.25,6.42,6.42,0,0,1-3.5,0s1.63,8.38,2.38,14.75.94,19.25.94,19.25a7.12,7.12,0,0,0,4.44-3.5c1.5-2.87,6.25.75,7.75-1.25s1.63-2.75,5.38-4.62a13.19,13.19,0,0,0,5.5-5.87s-2.87-.62-1.87-2,3.13-.75,3.88-5.06,2.5-5.06-3.5-9.81-14.37-10.87-16.37-12.5S519.25,93.74,519.25,93.74Zm-60.58,61.5s-3.33-7.17-3.5-14a62,62,0,0,0-.83-10s-11.5,2.33-17,.83-11.5-3-11.5-3a37.77,37.77,0,0,1-3.17,16.17c-3.67,8-8.83,13.17-9.67,18s-6.5,16-6.17,20.5c0,0,1.5-1.33,5.83.83s6,0,6,0,1-7.33,4-7.83c0,0,3.17,4.83,7.67,1.5s9.5-10.5,9.5-10.5-1.33-5.33,2.67-6,6.83-.5,11.5-3.5Z"/></g></g></svg>