<?xml version="1.0" encoding="UTF-8"?>
<svg version="1.1" xmlns="http://www.w3.org/2000/svg" width="512" height="512">
<path d="M0 0 C3.92808938 0.90648217 4.23244119 1.62123053 6.3125 4.9375 C17.32102189 25.34072905 21.82728682 48.20306078 15.25 70.75 C6.94659971 94.80630508 -12.40860178 114.31801129 -32.1484375 129.71875 C-35.25684852 132.14573759 -38.25116288 134.68985739 -41.25 137.25 C-45.20695436 140.6193855 -49.19877497 143.93121011 -53.25 147.1875 C-71.98312182 161.76383957 -71.98312182 161.76383957 -80.9609375 182.734375 C-82.2180827 210.77838322 -69.44849632 241.58621691 -57.54370117 266.31860352 C-54.02655638 273.76352422 -54.02655638 273.76352422 -54.75 277.75 C-56.75 279.75 -56.75 279.75 -59.890625 279.8046875 C-64.97207383 278.89822429 -67.97851542 275.41192404 -71.5 271.875 C-72.54933716 270.85224976 -72.54933716 270.85224976 -73.61987305 269.80883789 C-75.02618349 268.4341771 -76.42629861 267.05314679 -77.81982422 265.66552734 C-79.4764264 264.0214974 -81.15241419 262.40469335 -82.84765625 260.80078125 C-102.64490005 241.74415376 -119.95472148 215.95294839 -121.953125 187.8984375 C-122.38552185 162.31495736 -107.59340232 143.44721534 -90.75 125.75 C-90.16863281 125.11578125 -89.58726562 124.4815625 -88.98828125 123.828125 C-77.58840109 111.76779838 -62.71026346 102.60235611 -49.28759766 92.98583984 C-26.39773849 76.54091648 -10.8435802 61.79419026 -5.2019043 32.94750977 C-4.74007508 29.67977492 -4.66814794 26.62600004 -4.72265625 23.328125 C-4.73490234 22.13832031 -4.74714844 20.94851562 -4.75976562 19.72265625 C-4.79514399 17.22520551 -4.83425256 14.72780503 -4.87695312 12.23046875 C-4.88791016 11.04582031 -4.89886719 9.86117188 -4.91015625 8.640625 C-4.92699463 7.55813477 -4.94383301 6.47564453 -4.96118164 5.36035156 C-4.65815125 1.61468573 -3.54900358 0.96791007 0 0 Z " fill="#DB380E" transform="translate(304.75,-0.75)"/>
<path d="M0 0 C0.375 3 0.375 3 0 6 C-2.85743105 7.90495403 -4.28359069 8.4263147 -7.54296875 9.078125 C-8.44499023 9.26665039 -9.34701172 9.45517578 -10.27636719 9.64941406 C-11.23704102 9.84760742 -12.19771484 10.04580078 -13.1875 10.25 C-23.47375118 12.46555229 -33.54823822 15.27411911 -43 20 C-2.09406724 38.48885309 56.14675806 35.54447296 100 35 C101.12583496 34.98743164 102.25166992 34.97486328 103.41162109 34.96191406 C150.78679214 34.27885289 208.89550565 32.90145576 253.07861328 13.75634766 C255 13 255 13 257 13 C256.814375 11.741875 256.62875 10.48375 256.4375 9.1875 C255.99267239 6.17255732 256.00156154 4.99531539 257 2 C259.625 1.1875 259.625 1.1875 263 1 C267.56877938 3.95626901 270.15567323 6.7744075 272 12 C272.70012473 16.31311406 272.40547233 19.18905535 270.4375 23.125 C244.22052563 54.04758515 177.94434505 55.17535975 140.53012085 58.28874207 C119.15235071 59.94533213 97.85382135 60.31657404 76.41943359 60.26074219 C72.01459127 60.24936646 67.6099913 60.25612437 63.20515728 60.26762486 C45.88023396 60.30590155 28.60570103 60.11795396 11.30859375 59.07421875 C10.6246114 59.03298637 9.94062904 58.991754 9.23591995 58.94927216 C-3.89937295 58.13563742 -16.96654002 56.81943291 -30 55 C-30.82258301 54.88543457 -31.64516602 54.77086914 -32.49267578 54.65283203 C-49.13273587 52.24371217 -69.72621162 48.48372436 -80.79296875 34.83203125 C-83.92056783 30.0849634 -83.74972812 24.45465457 -83 19 C-80.27027695 12.61051551 -73.77672264 9.90637383 -67.7109375 7.34375 C-52.74977229 1.92623334 -13.58504595 -9.0566973 0 0 Z " fill="#73A1FB" transform="translate(149,427)"/>
<path d="M0 0 C2.49907923 -0.05857973 4.99747973 -0.09679148 7.49707031 -0.12548828 C8.27759766 -0.13870117 9.058125 -0.15191406 9.86230469 -0.16552734 C11.78372241 -0.16809838 13.70464157 -0.06176103 15.62207031 0.06201172 C17.62207031 2.06201172 17.62207031 2.06201172 17.99707031 4.49951172 C17.62207031 7.06201172 17.62207031 7.06201172 15.90454102 8.63500977 C13.47393597 10.15462539 11.51137546 10.80764301 8.72753906 11.45654297 C7.77838623 11.68696289 6.8292334 11.91738281 5.85131836 12.15478516 C4.8475415 12.39229492 3.84376465 12.62980469 2.80957031 12.87451172 C-12.90347455 16.17020195 -12.90347455 16.17020195 -26.37792969 24.06201172 C-23.52507404 24.55028303 -20.67100367 25.02760672 -17.81542969 25.49951172 C-17.03490234 25.63421875 -16.254375 25.76892578 -15.45019531 25.90771484 C42.21876981 35.327745 112.74068655 31.87389853 169.41748047 18.64794922 C172.60055874 18.06594496 175.39632118 17.81124267 178.62207031 18.06201172 C180.62207031 20.06201172 180.62207031 20.06201172 180.70019531 23.37841797 C179.42267655 27.74327373 178.32244247 28.59932462 174.55883789 30.82666016 C173.83720459 31.21370117 173.11557129 31.60074219 172.37207031 31.99951172 C171.61627686 32.42135742 170.8604834 32.84320313 170.08178711 33.27783203 C130.93081916 54.40781047 84.22302919 58.29331629 40.62207031 59.06201172 C39.37876953 59.08690674 39.37876953 59.08690674 38.11035156 59.11230469 C33.2784776 59.19889358 28.45359984 59.16900968 23.62207031 59.06201172 C22.27943115 59.03518311 22.27943115 59.03518311 20.90966797 59.0078125 C-48.25158362 57.44245789 -48.25158362 57.44245789 -68.37792969 39.06201172 C-71.72068703 35.37640747 -73.19972555 32.87969397 -73.69042969 27.87451172 C-73.29877576 23.0963338 -72.34406485 19.85680605 -69.37792969 16.06201172 C-51.89161723 1.2525304 -21.69995247 0.56589198 0 0 Z " fill="#73A1FB" transform="translate(179.3779296875,275.93798828125)"/>
<path d="M0 0 C1 1 1 1 1.4609375 3.6953125 C0.81142719 8.35197119 -1.85746066 10.12872441 -5.375 12.875 C-6.33792969 13.66197266 -6.33792969 13.66197266 -7.3203125 14.46484375 C-9.19979898 15.99474575 -11.09642227 17.50024302 -13 19 C-13.87914062 19.70382813 -14.75828125 20.40765625 -15.6640625 21.1328125 C-17.24041773 22.39284226 -18.81858803 23.65060417 -20.3984375 24.90625 C-43.19125946 42.83797209 -43.19125946 42.83797209 -60 66 C-60.35320312 66.70382813 -60.70640625 67.40765625 -61.0703125 68.1328125 C-63.87218609 74.56954914 -63.97720764 80.87780634 -61.6875 87.5 C-59.16263731 93.31263353 -55.56195559 98.47531754 -52.07885742 103.74438477 C-48.61804241 108.98834407 -45.41597334 114.17923723 -43 120 C-42.68417969 120.74636719 -42.36835938 121.49273437 -42.04296875 122.26171875 C-37.74543624 134.1338976 -39.01471031 147.42107423 -44.25390625 158.69921875 C-50.82841524 171.54369545 -61.44870338 184.61688434 -74 192 C-76.8125 192.5 -76.8125 192.5 -79 192 C-81 189 -81 189 -80.78125 186.25390625 C-79.92651116 182.69391898 -78.78336588 179.36602688 -77.5 175.9375 C-74.48707219 167.87091129 -71.42102616 158.06517564 -74.98828125 149.67578125 C-76.53321711 147.32138603 -78.21076929 145.1754211 -80 143 C-81.65206474 140.90033152 -83.29946893 138.79804598 -84.9375 136.6875 C-85.58440796 135.85400024 -85.58440796 135.85400024 -86.24438477 135.00366211 C-97.15092577 120.78998969 -102.52335459 105.73997299 -104 88 C-104.08378906 87.10667969 -104.16757813 86.21335937 -104.25390625 85.29296875 C-104.831089 73.76793258 -100.20757097 63.70858482 -93 55 C-92.24074219 54.06671875 -91.48148437 53.1334375 -90.69921875 52.171875 C-73.17496971 31.85544668 -27.58045966 -1.98963515 0 0 Z " fill="#DB380E" transform="translate(354,106)"/>
<path d="M0 0 C0.625 2.8125 0.625 2.8125 1 6 C0.34 6.99 -0.32 7.98 -1 9 C3.1243045 9.6503259 7.2495585 10.29442956 11.375 10.9375 C12.53128906 11.11990234 13.68757813 11.30230469 14.87890625 11.49023438 C27.37229514 13.43129762 39.61401547 14.33692518 52.25 14.4375 C53.47473526 14.44825562 53.47473526 14.44825562 54.72421265 14.45922852 C70.43941344 14.53076762 85.48963663 12.5354853 100.92169189 9.71450806 C104.27595293 9.10787854 107.6352839 8.54597706 111 8 C111.86173828 7.85328857 112.72347656 7.70657715 113.61132812 7.55541992 C121.0438222 6.86682121 126.85177267 11.48113636 132.875 15.3125 C134.0119544 16.0115032 135.14996978 16.70878372 136.2890625 17.40429688 C145.88703792 23.34562735 145.88703792 23.34562735 148 26 C148.08984375 28.99609375 148.08984375 28.99609375 147 32 C144.25390625 33.72265625 144.25390625 33.72265625 140.5625 35.0625 C139.89436279 35.30726074 139.22622559 35.55202148 138.5378418 35.80419922 C91.75905645 52.48199393 26.18366836 58.49690269 -20 37 C-25.44229053 34.03147789 -30.1938953 29.61220939 -33 24 C-33.51322348 18.85093815 -33.61975846 14.39445654 -31.5 9.625 C-23.36178269 1.07987182 -11.57472791 -2.49650994 0 0 Z " fill="#73A1FB" transform="translate(190,390)"/>
<path d="M0 0 C2.10574792 3.15862188 2.33097598 4.27598195 1.65625 7.91796875 C-2.66919608 21.64096137 -14.83995012 30.58710218 -27 37 C-54.26839489 50.03472315 -87.17990001 52.82024234 -117 55 C-118.03697021 55.08612549 -119.07394043 55.17225098 -120.14233398 55.26098633 C-134.4821578 56.29585698 -148.85531521 56.18732434 -163.22436523 56.18530273 C-166.26348892 56.18522197 -169.30246028 56.19209801 -172.34155273 56.20581055 C-191.98390387 56.29294376 -211.4216623 55.81425094 -231 54 C-231.84444672 53.92194122 -232.68889343 53.84388245 -233.55892944 53.76345825 C-238.36062523 53.30640797 -243.14907865 52.7691915 -247.9375 52.1875 C-248.97349838 52.06352341 -248.97349838 52.06352341 -250.03042603 51.93704224 C-260.45672365 50.68214949 -270.83158192 49.17922817 -281.1875 47.4375 C-282.38044678 47.23987061 -283.57339355 47.04224121 -284.80249023 46.83862305 C-290.60548155 45.81694296 -295.71818401 44.63708613 -301 42 C-301.1875 39.125 -301.1875 39.125 -301 36 C-297.30344488 33.53562992 -295.76060523 33.83276367 -291.36645508 34.0168457 C-289.92527143 34.06815855 -288.48408363 34.11935501 -287.04289246 34.17045593 C-285.87185502 34.21774117 -285.87185502 34.21774117 -284.67716026 34.26598167 C-257.42633602 35.33940481 -230.15265269 35.18768055 -202.88599789 35.1851083 C-198.05768241 35.18542039 -193.22942219 35.19364846 -188.40112305 35.20581055 C-92.77581341 37.86673577 -92.77581341 37.86673577 -6.84375 1.29296875 C-4.40244878 -0.41904545 -2.91605986 -0.4604305 0 0 Z " fill="#73A1FB" transform="translate(440,456)"/>
<path d="M0 0 C0.4375 2.6875 0.4375 2.6875 0 6 C-2.11124923 8.04775301 -4.45859507 9.53480226 -7 11 C-3.28643096 13.4757127 0.24567641 13.89538662 4.5625 14.5625 C5.70428711 14.75102539 5.70428711 14.75102539 6.86914062 14.94335938 C15.89510387 16.39328282 24.85231167 17.15794207 33.9921875 17.23828125 C35.38922409 17.25297203 35.38922409 17.25297203 36.81448364 17.26795959 C67.92419551 17.52679111 97.74547772 15.34991156 128.19726562 8.93115234 C143.33822107 5.74088328 143.33822107 5.74088328 148.9375 9.1953125 C150.30352285 10.15522045 151.65759082 11.13233728 153 12.125 C153.67289063 12.599375 154.34578125 13.07375 155.0390625 13.5625 C159.57892811 16.80526115 163.80793604 20.3210272 168 24 C167.25 28.75 167.25 28.75 165 31 C162.07390914 31.75255812 159.1865282 32.40058427 156.2265625 32.98828125 C154.87920265 33.26365219 154.87920265 33.26365219 153.50462341 33.54458618 C150.54672304 34.14426558 147.58631528 34.72993015 144.625 35.3125 C143.1063887 35.61355148 143.1063887 35.61355148 141.55709839 35.92068481 C15.66230765 60.77087305 15.66230765 60.77087305 -28.6875 31.5 C-32.10650724 29.06359821 -34.11120767 26.76581647 -36 23 C-36.53822319 17.97658353 -36.14377246 14.98211178 -33 11 C-25.45782527 3.8086241 -10.04544654 -5.33486992 0 0 Z " fill="#73A1FB" transform="translate(178,337)"/>
<path d="M0 0 C10.16731607 -0.38610061 19.57577483 1.97459358 27.71875 8.15625 C28.53214844 8.73375 29.34554687 9.31125 30.18359375 9.90625 C33.11647141 12.50923541 34.9674298 15.3271535 36.84375 18.71875 C37.18921875 19.34152832 37.5346875 19.96430664 37.890625 20.60595703 C43.8399538 31.68431118 45.74125278 43.93500849 43.02734375 56.30859375 C36.5807504 75.54048104 20.30733349 86.42043088 3.09375 95.28125 C-9.37363217 101.48726313 -27.14746879 110.00853831 -41.28125 109.15625 C-43.15625 107.96875 -43.15625 107.96875 -44.28125 106.15625 C-44.04489815 103.18595506 -43.75525185 101.63340532 -41.62988281 99.49389648 C-40.56785645 98.76795288 -40.56785645 98.76795288 -39.484375 98.02734375 C-38.69667725 97.47336914 -37.90897949 96.91939453 -37.09741211 96.34863281 C-36.25057861 95.76952148 -35.40374512 95.19041016 -34.53125 94.59375 C-26.70991423 89.04458723 -19.53646066 83.24942027 -12.69384766 76.53808594 C-11.3150506 75.18931453 -9.9135971 73.86382766 -8.51171875 72.5390625 C-0.50661534 64.83400045 9.01870386 54.82368561 9.71875 43.15625 C9.09328017 37.492905 7.24265263 32.80902915 2.71875 29.15625 C-7.62616923 22.55551371 -19.16427889 20.13752739 -31.29296875 19.46484375 C-33.28125 19.15625 -33.28125 19.15625 -36.28125 17.15625 C-36.46875 14.03125 -36.46875 14.03125 -36.28125 11.15625 C-24.75585936 4.82361778 -13.1295354 0.89928325 0 0 Z " fill="#73A1FB" transform="translate(402.28125,268.84375)"/>
</svg>
