<svg width="576" height="181" viewBox="0 0 576 181" fill="none" xmlns="http://www.w3.org/2000/svg">
<rect x="95.9053" y="7.04416" width="120" height="116" rx="31" transform="rotate(50 95.9053 7.04416)" stroke="#49CCD4" stroke-width="10"/>
<path d="M69.4578 132.289V62.4704H112.753V71.5386H79.9919V92.8113H109.651V101.845H79.9919V132.289H69.4578Z" fill="#49CCD4"/>
<path d="M201.719 74.6522H209.356L213.878 80.5158L217.106 84.334L224.856 94.2886H216.674L211.401 87.6068L209.151 84.4249L201.719 74.6522ZM225.969 67.0158C225.969 72.031 225.03 76.3265 223.151 79.9022C221.287 83.4628 218.742 86.1901 215.515 88.084C212.303 89.978 208.659 90.9249 204.583 90.9249C200.507 90.9249 196.856 89.978 193.628 88.084C190.416 86.1749 187.871 83.4401 185.992 79.8795C184.128 76.3037 183.196 72.0158 183.196 67.0158C183.196 62.0007 184.128 57.7128 185.992 54.1522C187.871 50.5765 190.416 47.8416 193.628 45.9477C196.856 44.0537 200.507 43.1068 204.583 43.1068C208.659 43.1068 212.303 44.0537 215.515 45.9477C218.742 47.8416 221.287 50.5765 223.151 54.1522C225.03 57.7128 225.969 62.0007 225.969 67.0158ZM217.492 67.0158C217.492 63.4855 216.939 60.5083 215.833 58.084C214.742 55.6446 213.227 53.8037 211.287 52.5613C209.348 51.3037 207.113 50.6749 204.583 50.6749C202.053 50.6749 199.818 51.3037 197.878 52.5613C195.939 53.8037 194.416 55.6446 193.31 58.084C192.219 60.5083 191.674 63.4855 191.674 67.0158C191.674 70.5461 192.219 73.531 193.31 75.9704C194.416 78.3946 195.939 80.2355 197.878 81.4931C199.818 82.7355 202.053 83.3568 204.583 83.3568C207.113 83.3568 209.348 82.7355 211.287 81.4931C213.227 80.2355 214.742 78.3946 215.833 75.9704C216.939 73.531 217.492 70.5461 217.492 67.0158ZM263.344 43.7431H271.776V74.1522C271.776 77.4855 270.988 80.4174 269.412 82.9477C267.852 85.478 265.655 87.4552 262.821 88.8795C259.988 90.2886 256.678 90.9931 252.89 90.9931C249.087 90.9931 245.768 90.2886 242.935 88.8795C240.102 87.4552 237.905 85.478 236.344 82.9477C234.784 80.4174 234.003 77.4855 234.003 74.1522V43.7431H242.435V73.4477C242.435 75.3871 242.859 77.1143 243.708 78.6295C244.571 80.1446 245.784 81.334 247.344 82.1977C248.905 83.0461 250.753 83.4704 252.89 83.4704C255.026 83.4704 256.875 83.0461 258.435 82.1977C260.011 81.334 261.223 80.1446 262.071 78.6295C262.92 77.1143 263.344 75.3871 263.344 73.4477V43.7431ZM286.918 90.2886H277.918L294.304 43.7431H304.714L321.123 90.2886H312.123L299.691 53.2886H299.327L286.918 90.2886ZM287.214 72.0386H311.759V78.8113H287.214V72.0386ZM343.026 90.2886H327.253V43.7431H343.344C347.965 43.7431 351.935 44.6749 355.253 46.5386C358.587 48.3871 361.147 51.0461 362.935 54.5158C364.723 57.9855 365.617 62.1371 365.617 66.9704C365.617 71.8189 364.715 75.9855 362.912 79.4704C361.125 82.9552 358.541 85.6295 355.162 87.4931C351.799 89.3568 347.753 90.2886 343.026 90.2886ZM335.685 82.9931H342.617C345.859 82.9931 348.564 82.4022 350.731 81.2204C352.897 80.0234 354.526 78.2431 355.617 75.8795C356.708 73.5007 357.253 70.531 357.253 66.9704C357.253 63.4098 356.708 60.4552 355.617 58.1068C354.526 55.7431 352.912 53.978 350.776 52.8113C348.655 51.6295 346.018 51.0386 342.867 51.0386H335.685V82.9931Z" fill="white"/>
<path d="M387.458 50.8113V43.7431H424.594V50.8113H410.208V90.2886H401.844V50.8113H387.458ZM431.753 90.2886V43.7431H462.026V50.8113H440.185V63.4477H460.458V70.5158H440.185V83.2204H462.208V90.2886H431.753ZM510.469 59.4477H501.969C501.727 58.0537 501.28 56.8189 500.628 55.7431C499.977 54.6522 499.166 53.728 498.196 52.9704C497.227 52.2128 496.121 51.6446 494.878 51.2658C493.651 50.8719 492.325 50.6749 490.901 50.6749C488.371 50.6749 486.128 51.3113 484.174 52.584C482.219 53.8416 480.689 55.6901 479.583 58.1295C478.477 60.5537 477.924 63.5158 477.924 67.0158C477.924 70.5765 478.477 73.5765 479.583 76.0158C480.704 78.4401 482.234 80.2734 484.174 81.5158C486.128 82.7431 488.363 83.3568 490.878 83.3568C492.272 83.3568 493.575 83.1749 494.787 82.8113C496.015 82.4325 497.113 81.8795 498.083 81.1522C499.068 80.4249 499.893 79.531 500.56 78.4704C501.242 77.4098 501.712 76.1977 501.969 74.834L510.469 74.8795C510.151 77.0916 509.462 79.1674 508.401 81.1068C507.356 83.0461 505.984 84.7583 504.287 86.2431C502.59 87.7128 500.606 88.8643 498.333 89.6977C496.06 90.5158 493.537 90.9249 490.765 90.9249C486.674 90.9249 483.022 89.978 479.81 88.084C476.598 86.1901 474.068 83.4552 472.219 79.8795C470.371 76.3037 469.446 72.0158 469.446 67.0158C469.446 62.0007 470.378 57.7128 472.242 54.1522C474.106 50.5765 476.643 47.8416 479.856 45.9477C483.068 44.0537 486.704 43.1068 490.765 43.1068C493.356 43.1068 495.765 43.4704 497.992 44.1977C500.219 44.9249 502.204 45.9931 503.946 47.4022C505.689 48.7961 507.121 50.5083 508.242 52.5386C509.378 54.5537 510.121 56.8568 510.469 59.4477ZM518.191 90.2886V43.7431H526.623V63.4477H548.191V43.7431H556.645V90.2886H548.191V70.5158H526.623V90.2886H518.191Z" fill="#49CCD4"/>
<path d="M200.679 120.906C200.546 119.666 199.988 118.7 199.003 118.009C198.027 117.317 196.759 116.972 195.196 116.972C194.098 116.972 193.155 117.137 192.369 117.469C191.583 117.8 190.982 118.25 190.565 118.818C190.149 119.386 189.936 120.035 189.926 120.764C189.926 121.37 190.063 121.896 190.338 122.341C190.622 122.786 191.006 123.165 191.489 123.477C191.972 123.78 192.507 124.036 193.094 124.244C193.681 124.453 194.273 124.628 194.869 124.77L197.597 125.452C198.695 125.707 199.751 126.053 200.764 126.489C201.787 126.924 202.701 127.473 203.506 128.136C204.32 128.799 204.964 129.599 205.438 130.537C205.911 131.474 206.148 132.573 206.148 133.832C206.148 135.537 205.712 137.038 204.841 138.335C203.97 139.623 202.71 140.632 201.062 141.361C199.424 142.08 197.44 142.44 195.111 142.44C192.848 142.44 190.883 142.09 189.216 141.389C187.559 140.688 186.261 139.666 185.324 138.321C184.396 136.976 183.894 135.338 183.818 133.406H189.003C189.079 134.42 189.391 135.262 189.94 135.935C190.49 136.607 191.205 137.109 192.085 137.44C192.975 137.772 193.97 137.938 195.068 137.938C196.214 137.938 197.218 137.767 198.08 137.426C198.951 137.076 199.633 136.593 200.125 135.977C200.617 135.352 200.868 134.623 200.878 133.79C200.868 133.032 200.646 132.407 200.21 131.915C199.775 131.413 199.164 130.996 198.378 130.665C197.601 130.324 196.692 130.021 195.651 129.756L192.341 128.903C189.945 128.288 188.051 127.355 186.659 126.105C185.277 124.846 184.585 123.174 184.585 121.091C184.585 119.377 185.049 117.876 185.977 116.588C186.915 115.3 188.188 114.301 189.798 113.591C191.408 112.871 193.231 112.511 195.267 112.511C197.331 112.511 199.14 112.871 200.693 113.591C202.256 114.301 203.482 115.291 204.372 116.56C205.262 117.819 205.722 119.268 205.75 120.906H200.679ZM255.24 127.455C255.24 130.589 254.653 133.274 253.479 135.509C252.314 137.734 250.723 139.438 248.706 140.622C246.699 141.806 244.421 142.398 241.874 142.398C239.326 142.398 237.044 141.806 235.027 140.622C233.02 139.429 231.429 137.72 230.254 135.494C229.09 133.259 228.507 130.58 228.507 127.455C228.507 124.32 229.09 121.64 230.254 119.415C231.429 117.18 233.02 115.471 235.027 114.287C237.044 113.103 239.326 112.511 241.874 112.511C244.421 112.511 246.699 113.103 248.706 114.287C250.723 115.471 252.314 117.18 253.479 119.415C254.653 121.64 255.24 124.32 255.24 127.455ZM249.942 127.455C249.942 125.248 249.596 123.387 248.905 121.872C248.223 120.348 247.276 119.197 246.064 118.42C244.852 117.634 243.455 117.241 241.874 117.241C240.292 117.241 238.896 117.634 237.683 118.42C236.471 119.197 235.52 120.348 234.828 121.872C234.146 123.387 233.806 125.248 233.806 127.455C233.806 129.661 234.146 131.527 234.828 133.051C235.52 134.566 236.471 135.717 237.683 136.503C238.896 137.279 240.292 137.668 241.874 137.668C243.455 137.668 244.852 137.279 246.064 136.503C247.276 135.717 248.223 134.566 248.905 133.051C249.596 131.527 249.942 129.661 249.942 127.455ZM278.622 142V112.909H283.892V137.582H296.705V142H278.622ZM338.017 112.909H343.287V131.915C343.287 133.998 342.794 135.83 341.809 137.412C340.834 138.993 339.461 140.229 337.69 141.119C335.919 142 333.85 142.44 331.483 142.44C329.106 142.44 327.032 142 325.261 141.119C323.49 140.229 322.117 138.993 321.142 137.412C320.166 135.83 319.679 133.998 319.679 131.915V112.909H324.949V131.474C324.949 132.687 325.214 133.766 325.744 134.713C326.284 135.66 327.041 136.403 328.017 136.943C328.992 137.473 330.147 137.739 331.483 137.739C332.818 137.739 333.973 137.473 334.949 136.943C335.933 136.403 336.691 135.66 337.221 134.713C337.752 133.766 338.017 132.687 338.017 131.474V112.909ZM366.136 117.327V112.909H389.346V117.327H380.355V142H375.128V117.327H366.136ZM417.491 112.909V142H412.221V112.909H417.491ZM467.592 127.455C467.592 130.589 467.005 133.274 465.83 135.509C464.666 137.734 463.075 139.438 461.058 140.622C459.05 141.806 456.773 142.398 454.225 142.398C451.678 142.398 449.396 141.806 447.379 140.622C445.371 139.429 443.78 137.72 442.606 135.494C441.441 133.259 440.859 130.58 440.859 127.455C440.859 124.32 441.441 121.64 442.606 119.415C443.78 117.18 445.371 115.471 447.379 114.287C449.396 113.103 451.678 112.511 454.225 112.511C456.773 112.511 459.05 113.103 461.058 114.287C463.075 115.471 464.666 117.18 465.83 119.415C467.005 121.64 467.592 124.32 467.592 127.455ZM462.293 127.455C462.293 125.248 461.948 123.387 461.257 121.872C460.575 120.348 459.628 119.197 458.416 118.42C457.203 117.634 455.807 117.241 454.225 117.241C452.644 117.241 451.247 117.634 450.035 118.42C448.823 119.197 447.871 120.348 447.18 121.872C446.498 123.387 446.157 125.248 446.157 127.455C446.157 129.661 446.498 131.527 447.18 133.051C447.871 134.566 448.823 135.717 450.035 136.503C451.247 137.279 452.644 137.668 454.225 137.668C455.807 137.668 457.203 137.279 458.416 136.503C459.628 135.717 460.575 134.566 461.257 133.051C461.948 131.527 462.293 129.661 462.293 127.455ZM514.88 112.909V142H510.193L496.485 122.185H496.244V142H490.974V112.909H495.69L509.383 132.739H509.639V112.909H514.88ZM554.832 120.906C554.7 119.666 554.141 118.7 553.156 118.009C552.181 117.317 550.912 116.972 549.349 116.972C548.251 116.972 547.308 117.137 546.522 117.469C545.736 117.8 545.135 118.25 544.718 118.818C544.302 119.386 544.089 120.035 544.079 120.764C544.079 121.37 544.217 121.896 544.491 122.341C544.775 122.786 545.159 123.165 545.642 123.477C546.125 123.78 546.66 124.036 547.247 124.244C547.834 124.453 548.426 124.628 549.022 124.77L551.75 125.452C552.848 125.707 553.904 126.053 554.917 126.489C555.94 126.924 556.854 127.473 557.659 128.136C558.473 128.799 559.117 129.599 559.591 130.537C560.064 131.474 560.301 132.573 560.301 133.832C560.301 135.537 559.865 137.038 558.994 138.335C558.123 139.623 556.863 140.632 555.216 141.361C553.577 142.08 551.593 142.44 549.264 142.44C547.001 142.44 545.036 142.09 543.369 141.389C541.712 140.688 540.415 139.666 539.477 138.321C538.549 136.976 538.047 135.338 537.971 133.406H543.156C543.232 134.42 543.544 135.262 544.093 135.935C544.643 136.607 545.358 137.109 546.238 137.44C547.129 137.772 548.123 137.938 549.221 137.938C550.367 137.938 551.371 137.767 552.233 137.426C553.104 137.076 553.786 136.593 554.278 135.977C554.771 135.352 555.022 134.623 555.031 133.79C555.022 133.032 554.799 132.407 554.363 131.915C553.928 131.413 553.317 130.996 552.531 130.665C551.754 130.324 550.845 130.021 549.804 129.756L546.494 128.903C544.098 128.288 542.204 127.355 540.812 126.105C539.43 124.846 538.738 123.174 538.738 121.091C538.738 119.377 539.202 117.876 540.13 116.588C541.068 115.3 542.342 114.301 543.951 113.591C545.561 112.871 547.384 112.511 549.42 112.511C551.485 112.511 553.293 112.871 554.846 113.591C556.409 114.301 557.635 115.291 558.525 116.56C559.415 117.819 559.875 119.268 559.903 120.906H554.832Z" fill="white"/>
</svg>
