<svg width="576" height="182" viewBox="0 0 576 182" fill="none" xmlns="http://www.w3.org/2000/svg">
<rect x="96.1179" y="7.75559" width="120" height="116" rx="31" transform="rotate(50 96.1179 7.75559)" stroke="#5BF3F8" stroke-width="10"/>
<path d="M69.6705 133V63.1818H112.966V72.25H80.2045V93.5227H109.864V102.557H80.2045V133H69.6705Z" fill="#5BF3F8"/>
<path d="M201.932 75.3636H209.568L214.091 81.2273L217.318 85.0455L225.068 95H216.886L211.614 88.3182L209.364 85.1364L201.932 75.3636ZM226.182 67.7273C226.182 72.7424 225.242 77.0379 223.364 80.6136C221.5 84.1742 218.955 86.9015 215.727 88.7955C212.515 90.6894 208.871 91.6364 204.795 91.6364C200.72 91.6364 197.068 90.6894 193.841 88.7955C190.629 86.8864 188.083 84.1515 186.205 80.5909C184.341 77.0152 183.409 72.7273 183.409 67.7273C183.409 62.7121 184.341 58.4242 186.205 54.8636C188.083 51.2879 190.629 48.553 193.841 46.6591C197.068 44.7651 200.72 43.8182 204.795 43.8182C208.871 43.8182 212.515 44.7651 215.727 46.6591C218.955 48.553 221.5 51.2879 223.364 54.8636C225.242 58.4242 226.182 62.7121 226.182 67.7273ZM217.705 67.7273C217.705 64.197 217.152 61.2197 216.045 58.7955C214.955 56.3561 213.439 54.5152 211.5 53.2727C209.561 52.0152 207.326 51.3864 204.795 51.3864C202.265 51.3864 200.03 52.0152 198.091 53.2727C196.152 54.5152 194.629 56.3561 193.523 58.7955C192.432 61.2197 191.886 64.197 191.886 67.7273C191.886 71.2576 192.432 74.2424 193.523 76.6818C194.629 79.1061 196.152 80.947 198.091 82.2045C200.03 83.447 202.265 84.0682 204.795 84.0682C207.326 84.0682 209.561 83.447 211.5 82.2045C213.439 80.947 214.955 79.1061 216.045 76.6818C217.152 74.2424 217.705 71.2576 217.705 67.7273ZM263.557 44.4545H271.989V74.8636C271.989 78.197 271.201 81.1288 269.625 83.6591C268.064 86.1894 265.867 88.1667 263.034 89.5909C260.201 91 256.89 91.7045 253.102 91.7045C249.299 91.7045 245.981 91 243.148 89.5909C240.314 88.1667 238.117 86.1894 236.557 83.6591C234.996 81.1288 234.216 78.197 234.216 74.8636V44.4545H242.648V74.1591C242.648 76.0985 243.072 77.8258 243.92 79.3409C244.784 80.8561 245.996 82.0455 247.557 82.9091C249.117 83.7576 250.966 84.1818 253.102 84.1818C255.239 84.1818 257.087 83.7576 258.648 82.9091C260.223 82.0455 261.436 80.8561 262.284 79.3409C263.133 77.8258 263.557 76.0985 263.557 74.1591V44.4545ZM287.131 91H278.131L294.517 44.4545H304.926L321.335 91H312.335L299.903 54H299.54L287.131 91ZM287.426 72.75H311.972V79.5227H287.426V72.75ZM343.239 91H327.466V44.4545H343.557C348.178 44.4545 352.148 45.3864 355.466 47.25C358.799 49.0985 361.36 51.7576 363.148 55.2273C364.936 58.697 365.83 62.8485 365.83 67.6818C365.83 72.5303 364.928 76.697 363.125 80.1818C361.337 83.6667 358.754 86.3409 355.375 88.2045C352.011 90.0682 347.966 91 343.239 91ZM335.898 83.7045H342.83C346.072 83.7045 348.777 83.1136 350.943 81.9318C353.11 80.7348 354.739 78.9545 355.83 76.5909C356.92 74.2121 357.466 71.2424 357.466 67.6818C357.466 64.1212 356.92 61.1667 355.83 58.8182C354.739 56.4545 353.125 54.6894 350.989 53.5227C348.867 52.3409 346.231 51.75 343.08 51.75H335.898V83.7045Z" fill="black"/>
<path d="M387.67 51.5227V44.4545H424.807V51.5227H410.42V91H402.057V51.5227H387.67ZM431.966 91V44.4545H462.239V51.5227H440.398V64.1591H460.67V71.2273H440.398V83.9318H462.42V91H431.966ZM510.682 60.1591H502.182C501.939 58.7652 501.492 57.5303 500.841 56.4545C500.189 55.3636 499.379 54.4394 498.409 53.6818C497.439 52.9242 496.333 52.3561 495.091 51.9773C493.864 51.5833 492.538 51.3864 491.114 51.3864C488.583 51.3864 486.341 52.0227 484.386 53.2955C482.432 54.553 480.902 56.4015 479.795 58.8409C478.689 61.2652 478.136 64.2273 478.136 67.7273C478.136 71.2879 478.689 74.2879 479.795 76.7273C480.917 79.1515 482.447 80.9848 484.386 82.2273C486.341 83.4545 488.576 84.0682 491.091 84.0682C492.485 84.0682 493.788 83.8864 495 83.5227C496.227 83.1439 497.326 82.5909 498.295 81.8636C499.28 81.1364 500.106 80.2424 500.773 79.1818C501.455 78.1212 501.924 76.9091 502.182 75.5455L510.682 75.5909C510.364 77.803 509.674 79.8788 508.614 81.8182C507.568 83.7576 506.197 85.4697 504.5 86.9545C502.803 88.4242 500.818 89.5758 498.545 90.4091C496.273 91.2273 493.75 91.6364 490.977 91.6364C486.886 91.6364 483.235 90.6894 480.023 88.7955C476.811 86.9015 474.28 84.1667 472.432 80.5909C470.583 77.0152 469.659 72.7273 469.659 67.7273C469.659 62.7121 470.591 58.4242 472.455 54.8636C474.318 51.2879 476.856 48.553 480.068 46.6591C483.28 44.7651 486.917 43.8182 490.977 43.8182C493.568 43.8182 495.977 44.1818 498.205 44.9091C500.432 45.6364 502.417 46.7045 504.159 48.1136C505.902 49.5076 507.333 51.2197 508.455 53.25C509.591 55.2652 510.333 57.5682 510.682 60.1591ZM518.403 91V44.4545H526.835V64.1591H548.403V44.4545H556.858V91H548.403V71.2273H526.835V91H518.403Z" fill="#5BF3F8"/>
<path d="M200.679 114.906C200.546 113.666 199.988 112.7 199.003 112.009C198.027 111.317 196.759 110.972 195.196 110.972C194.098 110.972 193.155 111.137 192.369 111.469C191.583 111.8 190.982 112.25 190.565 112.818C190.149 113.386 189.936 114.035 189.926 114.764C189.926 115.37 190.063 115.896 190.338 116.341C190.622 116.786 191.006 117.165 191.489 117.477C191.972 117.78 192.507 118.036 193.094 118.244C193.681 118.453 194.273 118.628 194.869 118.77L197.597 119.452C198.695 119.707 199.751 120.053 200.764 120.489C201.787 120.924 202.701 121.473 203.506 122.136C204.32 122.799 204.964 123.599 205.438 124.537C205.911 125.474 206.148 126.573 206.148 127.832C206.148 129.537 205.712 131.038 204.841 132.335C203.97 133.623 202.71 134.632 201.062 135.361C199.424 136.08 197.44 136.44 195.111 136.44C192.848 136.44 190.883 136.09 189.216 135.389C187.559 134.688 186.261 133.666 185.324 132.321C184.396 130.976 183.894 129.338 183.818 127.406H189.003C189.079 128.42 189.391 129.262 189.94 129.935C190.49 130.607 191.205 131.109 192.085 131.44C192.975 131.772 193.97 131.938 195.068 131.938C196.214 131.938 197.218 131.767 198.08 131.426C198.951 131.076 199.633 130.593 200.125 129.977C200.617 129.352 200.868 128.623 200.878 127.79C200.868 127.032 200.646 126.407 200.21 125.915C199.775 125.413 199.164 124.996 198.378 124.665C197.601 124.324 196.692 124.021 195.651 123.756L192.341 122.903C189.945 122.288 188.051 121.355 186.659 120.105C185.277 118.846 184.585 117.174 184.585 115.091C184.585 113.377 185.049 111.876 185.977 110.588C186.915 109.3 188.188 108.301 189.798 107.591C191.408 106.871 193.231 106.511 195.267 106.511C197.331 106.511 199.14 106.871 200.693 107.591C202.256 108.301 203.482 109.291 204.372 110.56C205.262 111.819 205.722 113.268 205.75 114.906H200.679ZM255.24 121.455C255.24 124.589 254.653 127.274 253.479 129.509C252.314 131.734 250.723 133.438 248.706 134.622C246.699 135.806 244.421 136.398 241.874 136.398C239.326 136.398 237.044 135.806 235.027 134.622C233.02 133.429 231.429 131.72 230.254 129.494C229.09 127.259 228.507 124.58 228.507 121.455C228.507 118.32 229.09 115.64 230.254 113.415C231.429 111.18 233.02 109.471 235.027 108.287C237.044 107.103 239.326 106.511 241.874 106.511C244.421 106.511 246.699 107.103 248.706 108.287C250.723 109.471 252.314 111.18 253.479 113.415C254.653 115.64 255.24 118.32 255.24 121.455ZM249.942 121.455C249.942 119.248 249.596 117.387 248.905 115.872C248.223 114.348 247.276 113.197 246.064 112.42C244.852 111.634 243.455 111.241 241.874 111.241C240.292 111.241 238.896 111.634 237.683 112.42C236.471 113.197 235.52 114.348 234.828 115.872C234.146 117.387 233.806 119.248 233.806 121.455C233.806 123.661 234.146 125.527 234.828 127.051C235.52 128.566 236.471 129.717 237.683 130.503C238.896 131.279 240.292 131.668 241.874 131.668C243.455 131.668 244.852 131.279 246.064 130.503C247.276 129.717 248.223 128.566 248.905 127.051C249.596 125.527 249.942 123.661 249.942 121.455ZM278.622 136V106.909H283.892V131.582H296.705V136H278.622ZM338.017 106.909H343.287V125.915C343.287 127.998 342.794 129.83 341.809 131.412C340.834 132.993 339.461 134.229 337.69 135.119C335.919 136 333.85 136.44 331.483 136.44C329.106 136.44 327.032 136 325.261 135.119C323.49 134.229 322.117 132.993 321.142 131.412C320.166 129.83 319.679 127.998 319.679 125.915V106.909H324.949V125.474C324.949 126.687 325.214 127.766 325.744 128.713C326.284 129.66 327.041 130.403 328.017 130.943C328.992 131.473 330.147 131.739 331.483 131.739C332.818 131.739 333.973 131.473 334.949 130.943C335.933 130.403 336.691 129.66 337.221 128.713C337.752 127.766 338.017 126.687 338.017 125.474V106.909ZM366.136 111.327V106.909H389.346V111.327H380.355V136H375.128V111.327H366.136ZM417.491 106.909V136H412.221V106.909H417.491ZM467.592 121.455C467.592 124.589 467.005 127.274 465.83 129.509C464.666 131.734 463.075 133.438 461.058 134.622C459.05 135.806 456.773 136.398 454.225 136.398C451.678 136.398 449.396 135.806 447.379 134.622C445.371 133.429 443.78 131.72 442.606 129.494C441.441 127.259 440.859 124.58 440.859 121.455C440.859 118.32 441.441 115.64 442.606 113.415C443.78 111.18 445.371 109.471 447.379 108.287C449.396 107.103 451.678 106.511 454.225 106.511C456.773 106.511 459.05 107.103 461.058 108.287C463.075 109.471 464.666 111.18 465.83 113.415C467.005 115.64 467.592 118.32 467.592 121.455ZM462.293 121.455C462.293 119.248 461.948 117.387 461.257 115.872C460.575 114.348 459.628 113.197 458.416 112.42C457.203 111.634 455.807 111.241 454.225 111.241C452.644 111.241 451.247 111.634 450.035 112.42C448.823 113.197 447.871 114.348 447.18 115.872C446.498 117.387 446.157 119.248 446.157 121.455C446.157 123.661 446.498 125.527 447.18 127.051C447.871 128.566 448.823 129.717 450.035 130.503C451.247 131.279 452.644 131.668 454.225 131.668C455.807 131.668 457.203 131.279 458.416 130.503C459.628 129.717 460.575 128.566 461.257 127.051C461.948 125.527 462.293 123.661 462.293 121.455ZM514.88 106.909V136H510.193L496.485 116.185H496.244V136H490.974V106.909H495.69L509.383 126.739H509.639V106.909H514.88ZM554.832 114.906C554.7 113.666 554.141 112.7 553.156 112.009C552.181 111.317 550.912 110.972 549.349 110.972C548.251 110.972 547.308 111.137 546.522 111.469C545.736 111.8 545.135 112.25 544.718 112.818C544.302 113.386 544.089 114.035 544.079 114.764C544.079 115.37 544.217 115.896 544.491 116.341C544.775 116.786 545.159 117.165 545.642 117.477C546.125 117.78 546.66 118.036 547.247 118.244C547.834 118.453 548.426 118.628 549.022 118.77L551.75 119.452C552.848 119.707 553.904 120.053 554.917 120.489C555.94 120.924 556.854 121.473 557.659 122.136C558.473 122.799 559.117 123.599 559.591 124.537C560.064 125.474 560.301 126.573 560.301 127.832C560.301 129.537 559.865 131.038 558.994 132.335C558.123 133.623 556.863 134.632 555.216 135.361C553.577 136.08 551.593 136.44 549.264 136.44C547.001 136.44 545.036 136.09 543.369 135.389C541.712 134.688 540.415 133.666 539.477 132.321C538.549 130.976 538.047 129.338 537.971 127.406H543.156C543.232 128.42 543.544 129.262 544.093 129.935C544.643 130.607 545.358 131.109 546.238 131.44C547.129 131.772 548.123 131.938 549.221 131.938C550.367 131.938 551.371 131.767 552.233 131.426C553.104 131.076 553.786 130.593 554.278 129.977C554.771 129.352 555.022 128.623 555.031 127.79C555.022 127.032 554.799 126.407 554.363 125.915C553.928 125.413 553.317 124.996 552.531 124.665C551.754 124.324 550.845 124.021 549.804 123.756L546.494 122.903C544.098 122.288 542.204 121.355 540.812 120.105C539.43 118.846 538.738 117.174 538.738 115.091C538.738 113.377 539.202 111.876 540.13 110.588C541.068 109.3 542.342 108.301 543.951 107.591C545.561 106.871 547.384 106.511 549.42 106.511C551.485 106.511 553.293 106.871 554.846 107.591C556.409 108.301 557.635 109.291 558.525 110.56C559.415 111.819 559.875 113.268 559.903 114.906H554.832Z" fill="black"/>
</svg>
