<svg id="Layer_1" data-name="Layer 1" xmlns="http://www.w3.org/2000/svg" viewBox="0 0 841.89 277.4"><defs><style>.cls-1,.cls-3{fill:#0898ff;}.cls-2,.cls-5,.cls-6{fill:#666;}.cls-3{font-size:73.93px;font-family:MyriadPro-Black, Myriad Pro;font-weight:800;}.cls-4{fill:#000;}.cls-5{letter-spacing:-0.03em;}.cls-6{font-size:58.53px;font-family:MyriadPro-SemiboldSemiExt, Myriad Pro;font-weight:600;letter-spacing:0.3em;}.cls-7{letter-spacing:0.26em;}</style></defs><path class="cls-1" d="M121,109.55v61.06a26.76,26.76,0,0,0,26.17,26.76V134.18h57.42V109.55Z"/><path class="cls-1" d="M147.81,63.5a26.76,26.76,0,0,0-26.74,26h98.68v-26Z"/><path class="cls-2" d="M262.72,213.43l-15.23-21a26.74,26.74,0,0,0,11.27-21.83V89.53a26,26,0,0,0-26-26h0a.22.22,0,0,0-.22.22V171.79L218.16,152H187.6l13.9,19.68H160.27v25.7h59.52l11.72,16.51Z"/><text class="cls-3" transform="translate(288.7 128.38)">FIRST<tspan class="cls-4" x="192.07" y="0"> </tspan><tspan class="cls-2" x="206.71" y="0">Q</tspan><tspan class="cls-5" x="260.68" y="0">U</tspan><tspan class="cls-2" x="310.14" y="0">AD</tspan></text><text class="cls-6" transform="translate(290.7 197.22)">SO<tspan class="cls-7" x="114.06" y="0">L</tspan><tspan x="160.94" y="0">UTION</tspan></text></svg>