<svg id="Layer_1" data-name="Layer 1" xmlns="http://www.w3.org/2000/svg" viewBox="0 0 841.89 277.4"><defs><style>.cls-1,.cls-3{fill:#0898ff;}.cls-2,.cls-4,.cls-5,.cls-6{fill:#fff;}.cls-3{font-size:73.93px;font-family:MyriadPro-Black, Myriad Pro;font-weight:800;}.cls-4{letter-spacing:-0.03em;}.cls-5{letter-spacing:0em;}.cls-6{font-size:56.78px;font-family:MyriadPro-SemiboldSemiExt, Myriad Pro;font-weight:600;letter-spacing:0.3em;}.cls-7{letter-spacing:0.26em;}</style></defs><path class="cls-1" d="M128.46,109.55v61.06a26.76,26.76,0,0,0,26.16,26.76V134.18H212V109.55Z"/><path class="cls-1" d="M155.23,63.5a26.75,26.75,0,0,0-26.73,26h98.68v-26Z"/><path class="cls-2" d="M270.14,213.43l-15.23-21a26.74,26.74,0,0,0,11.27-21.83V89.53a26,26,0,0,0-26-26h0a.22.22,0,0,0-.22.22V171.79L225.58,152H195l13.9,19.68H167.69v25.7h59.52l11.72,16.51Z"/><text class="cls-3" transform="translate(296.13 128.38)">FIRST<tspan class="cls-2" x="192.07" y="0" xml:space="preserve"> Q</tspan><tspan class="cls-4" x="260.68" y="0">U</tspan><tspan class="cls-5" x="310.14" y="0">AD</tspan></text><text class="cls-6" transform="translate(296.13 196.71)">SO<tspan class="cls-7" x="110.66" y="0">L</tspan><tspan x="156.13" y="0">UTION</tspan></text></svg>