<svg width="602" height="181" viewBox="0 0 602 181" fill="none" xmlns="http://www.w3.org/2000/svg">
<rect x="95.9053" y="7.04416" width="120" height="116" rx="31" transform="rotate(50 95.9053 7.04416)" stroke="#FF7260" stroke-width="10"/>
<g filter="url(#filter0_i_2_34)">
<path d="M56.6705 125V55.1818H99.9659V64.25H67.2045V85.5227H96.8636V94.5568H67.2045V125H56.6705Z" fill="#49CCD4"/>
</g>
<g filter="url(#filter1_i_2_34)">
<path d="M98.9707 94.3593H107.868L114.132 103.124L117.088 107.02L127.068 121H117.82L111.146 111.669L108.863 108.277L98.9707 94.3593ZM129 83.0496C129 89.9192 127.829 95.8254 125.488 100.768C123.146 105.69 119.937 109.481 115.859 112.141C111.8 114.78 107.185 116.099 102.015 116.099C96.8244 116.099 92.1902 114.78 88.1122 112.141C84.0537 109.481 80.8537 105.679 78.5122 100.737C76.1707 95.7939 75 89.8982 75 83.0496C75 76.1799 76.1707 70.2842 78.5122 65.3624C80.8537 60.4196 84.0537 56.6288 88.1122 53.9898C92.1902 51.3299 96.8244 50 102.015 50C107.185 50 111.8 51.3299 115.859 53.9898C119.937 56.6288 123.146 60.4196 125.488 65.3624C127.829 70.2842 129 76.1799 129 83.0496ZM120.044 83.0496C120.044 77.8136 119.254 73.4049 117.673 69.8234C116.112 66.2211 113.966 63.4984 111.234 61.6553C108.522 59.7913 105.449 58.8593 102.015 58.8593C98.561 58.8593 95.4781 59.7913 92.7659 61.6553C90.0537 63.4984 87.9073 66.2211 86.3268 69.8234C84.7659 73.4049 83.9854 77.8136 83.9854 83.0496C83.9854 88.2855 84.7659 92.7047 86.3268 96.3071C87.9073 99.8885 90.0537 102.611 92.7659 104.475C95.4781 106.318 98.561 107.24 102.015 107.24C105.449 107.24 108.522 106.318 111.234 104.475C113.966 102.611 116.112 99.8885 117.673 96.3071C119.254 92.7047 120.044 88.2855 120.044 83.0496Z" fill="#49CCD4"/>
</g>
<path d="M98.9707 93.3593H97.033L98.1557 94.9387L105.87 105.791C104.647 106.09 103.363 106.24 102.015 106.24C98.7512 106.24 95.867 105.373 93.3303 103.65C90.7995 101.91 88.7625 99.3482 87.2431 95.9065C85.7522 92.4645 84.9854 88.1905 84.9854 83.0496C84.9854 77.9074 85.7526 73.6443 87.243 70.2242C88.7631 66.7599 90.8001 64.2002 93.3279 62.4824L93.3323 62.4794C95.8693 60.7358 98.7526 59.8593 102.015 59.8593C105.256 59.8593 108.13 60.7351 110.668 62.4794L110.668 62.4795L110.675 62.4843C113.22 64.2017 115.256 66.7598 116.756 70.2211L116.758 70.2272C118.267 73.6462 119.044 77.9081 119.044 83.0496C119.044 88.1907 118.267 92.4641 116.757 95.9053L116.756 95.9075C115.919 97.8301 114.913 99.478 113.744 100.862L108.682 93.7779L108.383 93.3593H107.868H98.9707ZM102.015 117.099C105.735 117.099 109.193 116.437 112.377 115.109L117.006 121.582L117.305 122H117.82H127.068H129.011L127.882 120.419L120.328 109.837C122.759 107.469 124.779 104.585 126.391 101.198L126.392 101.196C128.81 96.0899 130 90.0304 130 83.0496C130 76.0692 128.811 70.0197 126.391 64.9335C123.981 59.8458 120.656 55.9039 116.404 53.1519C112.173 50.3792 107.366 49 102.015 49C96.6441 49 91.8178 50.3791 87.5665 53.1519C83.3338 55.9042 80.0188 59.8464 77.6088 64.9336C75.1893 70.0197 74 76.0693 74 83.0496C74 90.01 75.1897 96.0589 77.6085 101.165C80.0184 106.252 83.3328 110.204 87.564 112.977L87.5689 112.98C91.82 115.731 96.6454 117.099 102.015 117.099Z" stroke="white" stroke-width="2"/>
<path d="M185.591 90V43.4545H215.409V50.5227H194.023V63.1591H213.364V70.2273H194.023V90H185.591ZM234.083 43.4545V90H225.651V43.4545H234.083ZM245.773 90V43.4545H263.228C266.804 43.4545 269.804 44.0758 272.228 45.3182C274.667 46.5606 276.508 48.303 277.751 50.5455C279.008 52.7727 279.637 55.3712 279.637 58.3409C279.637 61.3258 279.001 63.9167 277.728 66.1136C276.47 68.2955 274.614 69.9848 272.16 71.1818C269.705 72.3636 266.69 72.9545 263.114 72.9545H250.682V65.9545H261.978C264.069 65.9545 265.781 65.6667 267.114 65.0909C268.448 64.5 269.433 63.6439 270.069 62.5227C270.72 61.3864 271.046 59.9924 271.046 58.3409C271.046 56.6894 270.72 55.2803 270.069 54.1136C269.417 52.9318 268.425 52.0379 267.092 51.4318C265.758 50.8106 264.039 50.5 261.932 50.5H254.205V90H245.773ZM269.819 68.9091L281.342 90H271.932L260.614 68.9091H269.819ZM315.254 56.25C315.042 54.2652 314.148 52.7197 312.572 51.6136C311.011 50.5076 308.981 49.9545 306.481 49.9545C304.724 49.9545 303.216 50.2197 301.958 50.75C300.701 51.2803 299.739 52 299.072 52.9091C298.405 53.8182 298.064 54.8561 298.049 56.0227C298.049 56.9924 298.269 57.8333 298.708 58.5455C299.163 59.2576 299.777 59.8636 300.549 60.3636C301.322 60.8485 302.178 61.2576 303.118 61.5909C304.057 61.9242 305.004 62.2045 305.958 62.4318L310.322 63.5227C312.08 63.9318 313.769 64.4848 315.39 65.1818C317.027 65.8788 318.489 66.7576 319.777 67.8182C321.08 68.8788 322.11 70.1591 322.868 71.6591C323.625 73.1591 324.004 74.9167 324.004 76.9318C324.004 79.6591 323.307 82.0606 321.913 84.1364C320.519 86.197 318.504 87.8106 315.868 88.9773C313.246 90.1288 310.072 90.7045 306.345 90.7045C302.724 90.7045 299.58 90.1439 296.913 89.0227C294.261 87.9015 292.186 86.2652 290.686 84.1136C289.201 81.9621 288.398 79.3409 288.277 76.25H296.572C296.693 77.8712 297.193 79.2197 298.072 80.2955C298.951 81.3712 300.095 82.1742 301.504 82.7045C302.928 83.2348 304.519 83.5 306.277 83.5C308.11 83.5 309.716 83.2273 311.095 82.6818C312.489 82.1212 313.58 81.3485 314.368 80.3636C315.155 79.3636 315.557 78.197 315.572 76.8636C315.557 75.6515 315.201 74.6515 314.504 73.8636C313.807 73.0606 312.83 72.3939 311.572 71.8636C310.33 71.3182 308.875 70.8333 307.208 70.4091L301.913 69.0455C298.08 68.0606 295.049 66.5682 292.822 64.5682C290.61 62.553 289.504 59.8788 289.504 56.5455C289.504 53.803 290.246 51.4015 291.731 49.3409C293.231 47.2803 295.269 45.6818 297.845 44.5455C300.421 43.3939 303.337 42.8182 306.595 42.8182C309.898 42.8182 312.792 43.3939 315.277 44.5455C317.777 45.6818 319.739 47.2652 321.163 49.2955C322.587 51.3106 323.322 53.6288 323.368 56.25H315.254ZM332.035 50.5227V43.4545H369.172V50.5227H354.785V90H346.422V50.5227H332.035ZM414.667 74.3636H422.303L426.826 80.2273L430.053 84.0455L437.803 94H429.621L424.349 87.3182L422.099 84.1364L414.667 74.3636ZM438.917 66.7273C438.917 71.7424 437.977 76.0379 436.099 79.6136C434.235 83.1742 431.69 85.9015 428.462 87.7955C425.25 89.6894 421.606 90.6364 417.53 90.6364C413.455 90.6364 409.803 89.6894 406.576 87.7955C403.364 85.8864 400.818 83.1515 398.94 79.5909C397.076 76.0152 396.144 71.7273 396.144 66.7273C396.144 61.7121 397.076 57.4242 398.94 53.8636C400.818 50.2879 403.364 47.553 406.576 45.6591C409.803 43.7651 413.455 42.8182 417.53 42.8182C421.606 42.8182 425.25 43.7651 428.462 45.6591C431.69 47.553 434.235 50.2879 436.099 53.8636C437.977 57.4242 438.917 61.7121 438.917 66.7273ZM430.44 66.7273C430.44 63.197 429.887 60.2197 428.78 57.7955C427.69 55.3561 426.174 53.5152 424.235 52.2727C422.296 51.0152 420.061 50.3864 417.53 50.3864C415 50.3864 412.765 51.0152 410.826 52.2727C408.887 53.5152 407.364 55.3561 406.258 57.7955C405.167 60.2197 404.621 63.197 404.621 66.7273C404.621 70.2576 405.167 73.2424 406.258 75.6818C407.364 78.1061 408.887 79.947 410.826 81.2045C412.765 82.447 415 83.0682 417.53 83.0682C420.061 83.0682 422.296 82.447 424.235 81.2045C426.174 79.947 427.69 78.1061 428.78 75.6818C429.887 73.2424 430.44 70.2576 430.44 66.7273ZM478.852 43.4545H487.284V73.8636C487.284 77.197 486.496 80.1288 484.92 82.6591C483.359 85.1894 481.162 87.1667 478.329 88.5909C475.496 90 472.185 90.7045 468.397 90.7045C464.594 90.7045 461.276 90 458.443 88.5909C455.609 87.1667 453.412 85.1894 451.852 82.6591C450.291 80.1288 449.511 77.197 449.511 73.8636V43.4545H457.943V73.1591C457.943 75.0985 458.367 76.8258 459.215 78.3409C460.079 79.8561 461.291 81.0455 462.852 81.9091C464.412 82.7576 466.261 83.1818 468.397 83.1818C470.534 83.1818 472.382 82.7576 473.943 81.9091C475.518 81.0455 476.731 79.8561 477.579 78.3409C478.428 76.8258 478.852 75.0985 478.852 73.1591V43.4545ZM504.986 90H495.986L512.372 43.4545H522.781L539.19 90H530.19L517.758 53H517.395L504.986 90ZM505.281 71.75H529.827V78.5227H505.281V71.75ZM563.654 90H547.881V43.4545H563.972C568.593 43.4545 572.563 44.3864 575.881 46.25C579.214 48.0985 581.775 50.7576 583.563 54.2273C585.351 57.697 586.245 61.8485 586.245 66.6818C586.245 71.5303 585.343 75.697 583.54 79.1818C581.752 82.6667 579.169 85.3409 575.79 87.2045C572.426 89.0682 568.381 90 563.654 90ZM556.313 82.7045H563.245C566.487 82.7045 569.192 82.1136 571.358 80.9318C573.525 79.7348 575.154 77.9545 576.245 75.5909C577.335 73.2121 577.881 70.2424 577.881 66.6818C577.881 63.1212 577.335 60.1667 576.245 57.8182C575.154 55.4545 573.54 53.6894 571.404 52.5227C569.282 51.3409 566.646 50.75 563.495 50.75H556.313V82.7045Z" fill="#49CCD4"/>
<g filter="url(#filter2_d_2_34)">
<path d="M184.591 117.327V112.909H207.801V117.327H198.81V142H193.582V117.327H184.591ZM216.276 142V112.909H235.196V117.327H221.545V125.224H234.216V129.642H221.545V137.582H235.31V142H216.276ZM269.473 122.724H264.161C264.009 121.853 263.73 121.081 263.322 120.409C262.915 119.727 262.409 119.15 261.803 118.676C261.196 118.203 260.505 117.848 259.729 117.611C258.962 117.365 258.133 117.241 257.243 117.241C255.661 117.241 254.26 117.639 253.038 118.435C251.817 119.221 250.86 120.376 250.169 121.901C249.478 123.416 249.132 125.267 249.132 127.455C249.132 129.68 249.478 131.555 250.169 133.08C250.87 134.595 251.826 135.741 253.038 136.517C254.26 137.284 255.657 137.668 257.229 137.668C258.1 137.668 258.914 137.554 259.672 137.327C260.439 137.09 261.125 136.744 261.732 136.29C262.347 135.835 262.863 135.277 263.28 134.614C263.706 133.951 264 133.193 264.161 132.341L269.473 132.369C269.274 133.752 268.843 135.049 268.18 136.261C267.527 137.473 266.67 138.544 265.609 139.472C264.549 140.39 263.308 141.11 261.888 141.631C260.467 142.142 258.891 142.398 257.158 142.398C254.601 142.398 252.319 141.806 250.311 140.622C248.304 139.438 246.722 137.729 245.567 135.494C244.411 133.259 243.834 130.58 243.834 127.455C243.834 124.32 244.416 121.64 245.581 119.415C246.746 117.18 248.332 115.471 250.339 114.287C252.347 113.103 254.62 112.511 257.158 112.511C258.777 112.511 260.283 112.739 261.675 113.193C263.067 113.648 264.307 114.315 265.396 115.196C266.485 116.067 267.38 117.137 268.081 118.406C268.791 119.666 269.255 121.105 269.473 122.724ZM278.299 142V112.909H283.569V125.224H297.049V112.909H302.333V142H297.049V129.642H283.569V142H278.299ZM341.796 120.906C341.664 119.666 341.105 118.7 340.12 118.009C339.145 117.317 337.876 116.972 336.313 116.972C335.215 116.972 334.272 117.137 333.487 117.469C332.701 117.8 332.099 118.25 331.683 118.818C331.266 119.386 331.053 120.035 331.043 120.764C331.043 121.37 331.181 121.896 331.455 122.341C331.739 122.786 332.123 123.165 332.606 123.477C333.089 123.78 333.624 124.036 334.211 124.244C334.798 124.453 335.39 124.628 335.987 124.77L338.714 125.452C339.812 125.707 340.868 126.053 341.881 126.489C342.904 126.924 343.818 127.473 344.623 128.136C345.437 128.799 346.081 129.599 346.555 130.537C347.028 131.474 347.265 132.573 347.265 133.832C347.265 135.537 346.829 137.038 345.958 138.335C345.087 139.623 343.827 140.632 342.18 141.361C340.541 142.08 338.558 142.44 336.228 142.44C333.965 142.44 332 142.09 330.333 141.389C328.676 140.688 327.379 139.666 326.441 138.321C325.513 136.976 325.011 135.338 324.935 133.406H330.12C330.196 134.42 330.508 135.262 331.058 135.935C331.607 136.607 332.322 137.109 333.202 137.44C334.093 137.772 335.087 137.938 336.185 137.938C337.331 137.938 338.335 137.767 339.197 137.426C340.068 137.076 340.75 136.593 341.242 135.977C341.735 135.352 341.986 134.623 341.995 133.79C341.986 133.032 341.763 132.407 341.327 131.915C340.892 131.413 340.281 130.996 339.495 130.665C338.719 130.324 337.809 130.021 336.768 129.756L333.458 128.903C331.062 128.288 329.168 127.355 327.776 126.105C326.394 124.846 325.702 123.174 325.702 121.091C325.702 119.377 326.166 117.876 327.094 116.588C328.032 115.3 329.306 114.301 330.915 113.591C332.525 112.871 334.348 112.511 336.384 112.511C338.449 112.511 340.257 112.871 341.81 113.591C343.373 114.301 344.599 115.291 345.489 116.56C346.379 117.819 346.839 119.268 346.867 120.906H341.796ZM381.957 127.455C381.957 130.589 381.37 133.274 380.196 135.509C379.031 137.734 377.44 139.438 375.423 140.622C373.416 141.806 371.138 142.398 368.591 142.398C366.044 142.398 363.761 141.806 361.744 140.622C359.737 139.429 358.146 137.72 356.972 135.494C355.807 133.259 355.224 130.58 355.224 127.455C355.224 124.32 355.807 121.64 356.972 119.415C358.146 117.18 359.737 115.471 361.744 114.287C363.761 113.103 366.044 112.511 368.591 112.511C371.138 112.511 373.416 113.103 375.423 114.287C377.44 115.471 379.031 117.18 380.196 119.415C381.37 121.64 381.957 124.32 381.957 127.455ZM376.659 127.455C376.659 125.248 376.313 123.387 375.622 121.872C374.94 120.348 373.993 119.197 372.781 118.42C371.569 117.634 370.172 117.241 368.591 117.241C367.009 117.241 365.613 117.634 364.401 118.42C363.188 119.197 362.237 120.348 361.545 121.872C360.864 123.387 360.523 125.248 360.523 127.455C360.523 129.661 360.864 131.527 361.545 133.051C362.237 134.566 363.188 135.717 364.401 136.503C365.613 137.279 367.009 137.668 368.591 137.668C370.172 137.668 371.569 137.279 372.781 136.503C373.993 135.717 374.94 134.566 375.622 133.051C376.313 131.527 376.659 129.661 376.659 127.455ZM390.94 142V112.909H396.21V137.582H409.022V142H390.94ZM435.934 112.909H441.204V131.915C441.204 133.998 440.711 135.83 439.727 137.412C438.751 138.993 437.378 140.229 435.607 141.119C433.836 142 431.767 142.44 429.4 142.44C427.023 142.44 424.949 142 423.178 141.119C421.407 140.229 420.034 138.993 419.059 137.412C418.084 135.83 417.596 133.998 417.596 131.915V112.909H422.866V131.474C422.866 132.687 423.131 133.766 423.661 134.713C424.201 135.66 424.959 136.403 425.934 136.943C426.909 137.473 428.065 137.739 429.4 137.739C430.735 137.739 431.89 137.473 432.866 136.943C433.851 136.403 434.608 135.66 435.138 134.713C435.669 133.766 435.934 132.687 435.934 131.474V112.909ZM449.653 117.327V112.909H472.864V117.327H463.872V142H458.645V117.327H449.653ZM486.608 112.909V142H481.338V112.909H486.608ZM522.309 127.455C522.309 130.589 521.722 133.274 520.548 135.509C519.383 137.734 517.792 139.438 515.775 140.622C513.767 141.806 511.49 142.398 508.942 142.398C506.395 142.398 504.113 141.806 502.096 140.622C500.088 139.429 498.497 137.72 497.323 135.494C496.158 133.259 495.576 130.58 495.576 127.455C495.576 124.32 496.158 121.64 497.323 119.415C498.497 117.18 500.088 115.471 502.096 114.287C504.113 113.103 506.395 112.511 508.942 112.511C511.49 112.511 513.767 113.103 515.775 114.287C517.792 115.471 519.383 117.18 520.548 119.415C521.722 121.64 522.309 124.32 522.309 127.455ZM517.011 127.455C517.011 125.248 516.665 123.387 515.974 121.872C515.292 120.348 514.345 119.197 513.133 118.42C511.921 117.634 510.524 117.241 508.942 117.241C507.361 117.241 505.964 117.634 504.752 118.42C503.54 119.197 502.588 120.348 501.897 121.872C501.215 123.387 500.874 125.248 500.874 127.455C500.874 129.661 501.215 131.527 501.897 133.051C502.588 134.566 503.54 135.717 504.752 136.503C505.964 137.279 507.361 137.668 508.942 137.668C510.524 137.668 511.921 137.279 513.133 136.503C514.345 135.717 515.292 134.566 515.974 133.051C516.665 131.527 517.011 129.661 517.011 127.455ZM555.197 112.909V142H550.51L536.803 122.185H536.561V142H531.291V112.909H536.007L549.7 132.739H549.956V112.909H555.197ZM580.749 120.906C580.617 119.666 580.058 118.7 579.073 118.009C578.098 117.317 576.829 116.972 575.266 116.972C574.168 116.972 573.226 117.137 572.44 117.469C571.654 117.8 571.052 118.25 570.636 118.818C570.219 119.386 570.006 120.035 569.996 120.764C569.996 121.37 570.134 121.896 570.408 122.341C570.692 122.786 571.076 123.165 571.559 123.477C572.042 123.78 572.577 124.036 573.164 124.244C573.751 124.453 574.343 124.628 574.94 124.77L577.667 125.452C578.765 125.707 579.821 126.053 580.835 126.489C581.857 126.924 582.771 127.473 583.576 128.136C584.39 128.799 585.034 129.599 585.508 130.537C585.981 131.474 586.218 132.573 586.218 133.832C586.218 135.537 585.782 137.038 584.911 138.335C584.04 139.623 582.781 140.632 581.133 141.361C579.495 142.08 577.511 142.44 575.181 142.44C572.918 142.44 570.953 142.09 569.286 141.389C567.629 140.688 566.332 139.666 565.394 138.321C564.466 136.976 563.964 135.338 563.888 133.406H569.073C569.149 134.42 569.461 135.262 570.011 135.935C570.56 136.607 571.275 137.109 572.156 137.44C573.046 137.772 574.04 137.938 575.138 137.938C576.284 137.938 577.288 137.767 578.15 137.426C579.021 137.076 579.703 136.593 580.195 135.977C580.688 135.352 580.939 134.623 580.948 133.79C580.939 133.032 580.716 132.407 580.281 131.915C579.845 131.413 579.234 130.996 578.448 130.665C577.672 130.324 576.763 130.021 575.721 129.756L572.411 128.903C570.015 128.288 568.121 127.355 566.729 126.105C565.347 124.846 564.656 123.174 564.656 121.091C564.656 119.377 565.12 117.876 566.048 116.588C566.985 115.3 568.259 114.301 569.869 113.591C571.478 112.871 573.301 112.511 575.337 112.511C577.402 112.511 579.21 112.871 580.763 113.591C582.326 114.301 583.552 115.291 584.442 116.56C585.333 117.819 585.792 119.268 585.82 120.906H580.749Z" fill="white"/>
</g>
<defs>
<filter id="filter0_i_2_34" x="56.6704" y="55.1818" width="43.2955" height="73.8182" filterUnits="userSpaceOnUse" color-interpolation-filters="sRGB">
<feFlood flood-opacity="0" result="BackgroundImageFix"/>
<feBlend mode="normal" in="SourceGraphic" in2="BackgroundImageFix" result="shape"/>
<feColorMatrix in="SourceAlpha" type="matrix" values="0 0 0 0 0 0 0 0 0 0 0 0 0 0 0 0 0 0 127 0" result="hardAlpha"/>
<feOffset dy="4"/>
<feGaussianBlur stdDeviation="2"/>
<feComposite in2="hardAlpha" operator="arithmetic" k2="-1" k3="1"/>
<feColorMatrix type="matrix" values="0 0 0 0 0 0 0 0 0 0 0 0 0 0 0 0 0 0 0.25 0"/>
<feBlend mode="normal" in2="shape" result="effect1_innerShadow_2_34"/>
</filter>
<filter id="filter1_i_2_34" x="73" y="48" width="61" height="79" filterUnits="userSpaceOnUse" color-interpolation-filters="sRGB">
<feFlood flood-opacity="0" result="BackgroundImageFix"/>
<feBlend mode="normal" in="SourceGraphic" in2="BackgroundImageFix" result="shape"/>
<feColorMatrix in="SourceAlpha" type="matrix" values="0 0 0 0 0 0 0 0 0 0 0 0 0 0 0 0 0 0 127 0" result="hardAlpha"/>
<feOffset dx="3" dy="4"/>
<feGaussianBlur stdDeviation="2"/>
<feComposite in2="hardAlpha" operator="arithmetic" k2="-1" k3="1"/>
<feColorMatrix type="matrix" values="0 0 0 0 0 0 0 0 0 0 0 0 0 0 0 0 0 0 0.25 0"/>
<feBlend mode="normal" in2="shape" result="effect1_innerShadow_2_34"/>
</filter>
<filter id="filter2_d_2_34" x="180.591" y="112.511" width="409.627" height="37.929" filterUnits="userSpaceOnUse" color-interpolation-filters="sRGB">
<feFlood flood-opacity="0" result="BackgroundImageFix"/>
<feColorMatrix in="SourceAlpha" type="matrix" values="0 0 0 0 0 0 0 0 0 0 0 0 0 0 0 0 0 0 127 0" result="hardAlpha"/>
<feOffset dy="4"/>
<feGaussianBlur stdDeviation="2"/>
<feComposite in2="hardAlpha" operator="out"/>
<feColorMatrix type="matrix" values="0 0 0 0 0 0 0 0 0 0 0 0 0 0 0 0 0 0 0.25 0"/>
<feBlend mode="normal" in2="BackgroundImageFix" result="effect1_dropShadow_2_34"/>
<feBlend mode="normal" in="SourceGraphic" in2="effect1_dropShadow_2_34" result="shape"/>
</filter>
</defs>
</svg>
