<svg id="Layer_1" data-name="Layer 1" xmlns="http://www.w3.org/2000/svg" viewBox="0 0 841.89 277.4"><defs><style>.cls-1,.cls-3{fill:#09f;}.cls-2,.cls-4{fill:#666;}.cls-3{font-size:80.12px;font-family:DINAlternate-Black, DIN Alternate Black;font-weight:800;}.cls-4{font-size:55.38px;font-family:DINAlternate-Medium, DIN Alternate Medium;font-weight:500;}</style></defs><path class="cls-1" d="M115.58,109.55v61.06a26.76,26.76,0,0,0,26.16,26.76V134.18h57.42V109.55Z"/><path class="cls-1" d="M142.36,63.5a26.76,26.76,0,0,0-26.74,26H214.3v-26Z"/><path class="cls-2" d="M257.27,213.43l-15.24-21a26.72,26.72,0,0,0,11.28-21.83V89.53a26,26,0,0,0-26-26h0a.22.22,0,0,0-.22.22V171.79L212.71,152H182.15l13.9,19.68H154.82v25.7h59.52l11.71,16.51Z"/><text class="cls-3" transform="translate(279.96 134.24)">FIRST<tspan class="cls-2" x="219.91" y="0" xml:space="preserve"> QUAD</tspan></text><text class="cls-4" transform="translate(283.85 196.72)">TECH SOLUTIONS</text></svg>